<?xml version="1.0" encoding="utf-8"?>
<!-- Generator: Adobe Illustrator 25.4.1, SVG Export Plug-In . SVG Version: 6.00 Build 0)  -->
<svg version="1.1" id="Layer_1" xmlns="http://www.w3.org/2000/svg" xmlns:xlink="http://www.w3.org/1999/xlink" x="0px" y="0px"
	 viewBox="0 0 32 40" style="enable-background:new 0 0 32 40;" xml:space="preserve">
<style type="text/css">
	.st0{fill:#FFFFFF;}
</style>
<g>
	<path class="st0" d="M14,0H4C3.4,0,3,0.4,3,1v30c0,0.6,0.4,1,1,1h10c0.6,0,1-0.4,1-1V1C15,0.4,14.6,0,14,0z M13,30H5v-3h5v-2H5v-3
		h3v-2H5v-3h5v-2H5v-3h3v-2H5V7h5V5H5V2h8V30z"/>
	<path class="st0" d="M24,28.6V3.4l3.3,3.3l1.4-1.4l-5-5c-0.4-0.4-1-0.4-1.4,0l-5,5l1.4,1.4L22,3.4v25.2l-3.3-3.3l-1.4,1.4l5,5
		c0.4,0.4,1,0.4,1.4,0l5-5l-1.4-1.4L24,28.6z"/>
</g>
</svg>
