<?xml version="1.0" encoding="utf-8"?>
<!-- Generator: Adobe Illustrator 25.4.1, SVG Export Plug-In . SVG Version: 6.00 Build 0)  -->
<svg version="1.1" id="Layer_1" xmlns="http://www.w3.org/2000/svg" xmlns:xlink="http://www.w3.org/1999/xlink" x="0px" y="0px"
	 viewBox="0 0 90 112.6" style="enable-background:new 0 0 90 112.6;" xml:space="preserve">
<g>
	<g>
		<path d="M24,8l-5.9-0.8c-0.5-0.1-1-0.4-1.2-0.9l-2.6-5.3c-0.4-0.8-1.4-1.2-2.2-0.8c-0.3,0.2-0.6,0.4-0.8,0.8L8.6,6.3
			C8.3,6.8,7.9,7.1,7.3,7.2L1.4,8C0.5,8.1-0.1,8.9,0,9.9c0,0.4,0.2,0.7,0.5,1l4.3,4.2c0.4,0.4,0.6,0.9,0.5,1.5l-1,5.9
			c-0.2,0.9,0.4,1.8,1.3,2c0.1,0,0.2,0,0.3,0c0.3,0,0.5-0.1,0.8-0.2l5.3-2.8c0.5-0.3,1.1-0.3,1.6,0l5.3,2.8c0.2,0.1,0.5,0.2,0.8,0.2
			c0.9,0,1.7-0.7,1.7-1.7c0-0.1,0-0.2,0-0.3l-1-5.9c-0.1-0.5,0.1-1.1,0.5-1.5l4.3-4.2c0.7-0.6,0.7-1.7,0.1-2.3C24.8,8.2,24.4,8,24,8
			z M19.3,13.6c-0.9,0.8-1.3,2.1-1.1,3.2l0.9,5.2l-4.7-2.5c-1.1-0.6-2.3-0.6-3.4,0l-4.7,2.5l0.9-5.2c0.2-1.2-0.2-2.4-1-3.2L2.4,9.9
			l5.2-0.8c1.2-0.2,2.2-0.9,2.8-2l2.3-4.7l2.3,4.7c0.5,1.1,1.6,1.8,2.8,2L23,9.9L19.3,13.6z M24,40.9L18.1,40
			c-0.5-0.1-1-0.4-1.2-0.9l-2.6-5.3C13.8,33,12.8,32.6,12,33c-0.3,0.2-0.6,0.4-0.8,0.8l-2.6,5.3C8.3,39.6,7.9,40,7.3,40l-5.9,0.9
			c-0.9,0.1-1.5,1-1.4,1.9c0.1,0.4,0.2,0.7,0.5,0.9l4.3,4.2c0.4,0.4,0.6,0.9,0.5,1.5l-1,5.9c-0.2,0.9,0.4,1.8,1.3,2
			c0.1,0,0.2,0,0.4,0c0.3,0,0.5-0.1,0.8-0.3l5.3-2.8c0.5-0.3,1.1-0.3,1.6,0l5.3,2.8c0.2,0.1,0.5,0.2,0.8,0.2c0.9,0,1.7-0.7,1.7-1.6
			c0-0.1,0-0.2,0-0.4l-1-5.9c-0.1-0.5,0.1-1.1,0.5-1.5l4.3-4.2c0.6-0.7,0.6-1.7-0.1-2.3C24.6,41.1,24.3,41,24,40.9z M19.3,46.5
			c-0.9,0.8-1.3,2.1-1.1,3.2l0.9,5.2l-4.7-2.5c-1.1-0.6-2.3-0.6-3.4,0l-4.7,2.5l0.9-5.2c0.2-1.2-0.2-2.4-1-3.2l-3.8-3.7L7.6,42
			c1.2-0.2,2.2-0.9,2.8-2l2.3-4.7l2.3,4.7c0.5,1.1,1.6,1.8,2.8,2l5.2,0.8L19.3,46.5z M24,73.8l-5.9-0.9c-0.5-0.1-1-0.4-1.2-0.9
			l-2.6-5.3c-0.4-0.8-1.4-1.2-2.2-0.8c-0.3,0.2-0.6,0.4-0.8,0.8L8.6,72c-0.2,0.5-0.7,0.8-1.2,0.9l-5.9,0.9c-0.9,0.1-1.5,1-1.4,1.9
			c0.1,0.4,0.2,0.7,0.5,1l4.3,4.2c0.4,0.4,0.6,0.9,0.5,1.5l-1,5.9c-0.2,0.9,0.4,1.8,1.3,2c0.1,0,0.2,0,0.4,0c0.3,0,0.5-0.1,0.8-0.2
			l5.3-2.8c0.5-0.3,1.1-0.3,1.6,0l5.3,2.8c0.2,0.1,0.5,0.2,0.8,0.2c0.9,0,1.7-0.7,1.7-1.6c0-0.1,0-0.2,0-0.4l-1-5.9
			c-0.1-0.5,0.1-1.1,0.5-1.5l4.3-4.2c0.7-0.6,0.7-1.7,0-2.3C24.7,74,24.4,73.8,24,73.8z M19.3,79.3c-0.9,0.8-1.3,2.1-1.1,3.2
			l0.9,5.2l-4.7-2.5c-1.1-0.6-2.3-0.6-3.4,0l-4.7,2.5l0.9-5.2c0.2-1.2-0.2-2.4-1-3.2l-3.8-3.7l5.2-0.8c1.2-0.2,2.2-0.9,2.8-2
			l2.3-4.7l2.3,4.7c0.5,1.1,1.6,1.8,2.8,2l5.2,0.8L19.3,79.3z M35,12.1c0-0.6,0.4-1,1-1h53c0.6,0,1,0.4,1,1s-0.4,1-1,1H36
			C35.4,13.1,35,12.6,35,12.1z M90,46.1c0,0.6-0.4,1-1,1H36c-0.6,0-1-0.4-1-1s0.4-1,1-1h53C89.6,45.1,90,45.5,90,46.1z M90,79.1
			c0,0.6-0.4,1-1,1H36c-0.6,0-1-0.4-1-1s0.4-1,1-1h53C89.6,78.1,90,78.5,90,79.1z"/>
	</g>
</g>
</svg>
