<?xml version="1.0" encoding="utf-8"?>
<!-- Generator: Adobe Illustrator 25.4.1, SVG Export Plug-In . SVG Version: 6.00 Build 0)  -->
<svg version="1.1" id="Layer_1" xmlns="http://www.w3.org/2000/svg" xmlns:xlink="http://www.w3.org/1999/xlink" x="0px" y="0px"
	 viewBox="0 0 100 125" style="enable-background:new 0 0 100 125;" xml:space="preserve">
<style type="text/css">
	.st0{fill:#FFFFFF;}
</style>
<path class="st0" d="M33.2,46.7c0.5,0.5,1,0.5,1.5,0l6.3-6.3c0.6-0.6,0.6-1.6,0-2.2c-0.6-0.6-1.6-0.6-2.2,0L34,43l-2.4-2.4
	C31,40,30,40,29.4,40.6s-0.6,1.6,0,2.2L33.2,46.7z"/>
<path class="st0" d="M45.7,46.2h23c0.5,0,0.7-0.2,0.7-0.7v-3.4c0-0.5-0.2-0.7-0.7-0.7h-23c-0.5,0-0.7,0.2-0.7,0.7v3.4
	C45,46,45.2,46.2,45.7,46.2z"/>
<path class="st0" d="M33.2,62.1c0.5,0.5,1,0.5,1.5,0l6.3-6.3c0.6-0.6,0.6-1.6,0-2.2c-0.6-0.6-1.6-0.6-2.2,0L34,58.4L31.6,56
	c-0.6-0.6-1.6-0.6-2.2,0s-0.6,1.6,0,2.2L33.2,62.1z"/>
<path class="st0" d="M45.7,61.7h23c0.5,0,0.7-0.2,0.7-0.7v-3.4c0-0.5-0.2-0.7-0.7-0.7h-23c-0.5,0-0.7,0.2-0.7,0.7V61
	C45,61.5,45.2,61.7,45.7,61.7z"/>
<path class="st0" d="M33.2,77.6c0.5,0.5,1,0.5,1.5,0l6.3-6.3c0.6-0.6,0.6-1.6,0-2.2s-1.6-0.6-2.2,0L34,73.9l-2.4-2.4
	c-0.6-0.6-1.6-0.6-2.2,0s-0.6,1.6,0,2.2L33.2,77.6z"/>
<path class="st0" d="M45.7,77.2h23c0.5,0,0.7-0.2,0.7-0.7V73c0-0.5-0.2-0.7-0.7-0.7h-23c-0.5,0-0.7,0.2-0.7,0.7v3.4
	C45,77,45.2,77.2,45.7,77.2z"/>
<circle class="st0" cx="50" cy="11.8" r="2.5"/>
<path class="st0" d="M75.4,19.4h-10c-0.3-3.4-2.4-5.3-6-5.3h-1c-1.1,0-1.3-0.2-1.3-1.5V12c0-4.1-2.9-7-7.1-7s-7.1,2.9-7.1,7.1v0.6
	c0,1.3-0.3,1.5-1.3,1.5h-1c-3.6,0-5.7,1.9-6,5.3h-10c-5.1,0-7,2-7,7V88c0,5.1,2,7,7,7h50.9c5.1,0,7-2,7-7V26.4
	C82.5,21.4,80.5,19.4,75.4,19.4z M36.6,20.2c0-2.8,1.2-4,4-4h1c2.3,0,3.4-1.2,3.4-3.5v-0.6c0-3.7,2.7-5,5-5s5,1.3,5,5v0.6
	c0,2.4,1.1,3.5,3.4,3.5h1c2.8,0,4,1.2,4,4v3.3c0,0.6-0.1,0.7-0.7,0.7H37.3c-0.6,0-0.7-0.1-0.7-0.7V20.2z M77.1,81.3l-7.3,7.3H22.9
	V30.2H77L77.1,81.3L77.1,81.3z"/>
</svg>
