<?xml version="1.0" encoding="utf-8"?>
<!-- Generator: Adobe Illustrator 25.4.1, SVG Export Plug-In . SVG Version: 6.00 Build 0)  -->
<svg version="1.1" id="Layer_1" xmlns:sketch="http://www.bohemiancoding.com/sketch/ns"
	 xmlns="http://www.w3.org/2000/svg" xmlns:xlink="http://www.w3.org/1999/xlink" x="0px" y="0px" viewBox="0 0 100 125"
	 style="enable-background:new 0 0 100 125;" xml:space="preserve">
<style type="text/css">
	.st0{fill-rule:evenodd;clip-rule:evenodd;fill:#FFFFFF;}
</style>
<desc>Created with Sketch.</desc>
<g sketch:type="MSPage">
	<g sketch:type="MSLayerGroup">
		<path sketch:type="MSShapeGroup" class="st0" d="M50,94c24.3,0,44-19.7,44-44S74.3,6,50,6S6,25.7,6,50S25.7,94,50,94L50,94z
			 M50,86c19.9,0,36-16.1,36-36S69.9,14,50,14S14,30.1,14,50S30.1,86,50,86L50,86z M57,31c0,1.7-0.6,3.1-1.7,4.2
			c-1.1,1.2-2.5,1.8-4.1,1.8c-1.6,0-3-0.6-4.1-1.8c-1.2-1.2-1.7-2.6-1.7-4.2c0-1.7,0.6-3.1,1.7-4.2s2.5-1.8,4.1-1.8
			c1.6,0,3,0.6,4.1,1.8C56.4,27.9,57,29.4,57,31L57,31z M56.4,70.5c-1.7,0.8-3.1,1.5-4.1,1.9c-1,0.4-2.2,0.6-3.6,0.6
			c-2.1,0-3.7-0.6-4.9-1.9c-1.2-1.2-1.7-2.8-1.7-4.7c0-0.7,0-1.5,0.1-2.3c0.1-0.8,0.2-1.6,0.4-2.6l2.1-9.2c0.2-0.9,0.4-1.7,0.5-2.5
			c0.1-0.8,0.2-1.5,0.2-2.2c0-1.2-0.2-2-0.6-2.5c-0.4-0.5-1.2-0.7-2.3-0.7c-0.6,0-1.1,0.1-1.7,0.3C40.3,45,40,42.5,40,42.5
			c1.4-0.7,2.8-1.3,4-1.8c1.3-0.5,2.5-0.7,3.7-0.7c2.1,0,3.7,0.6,4.8,1.8c1.1,1.2,1.7,2.8,1.7,4.7c0,0.4,0,1.1-0.1,2.1
			c-0.1,1-0.2,1.9-0.4,2.8l-2.1,9.2c-0.2,0.7-0.3,1.6-0.5,2.5c-0.1,0.9-0.2,1.7-0.2,2.2c0,1.2,0.2,2.1,0.7,2.5
			c0.5,0.4,1.2,0.7,2.3,0.7c0.5,0,1.1-0.1,1.8-0.3C56.2,68,56.4,70.5,56.4,70.5L56.4,70.5z"/>
	</g>
</g>
</svg>
